HIERARCHY
ROOT root
{
	OFFSET	0	13.1	24.9
	CHANNELS 6  Xposition Yposition Zposition Xrotation Yrotation Zrotation
	JOINT spine_1
	{
		OFFSET	0	9.99999	0
		CHANNELS 3  Xrotation Yrotation Zrotation
		JOINT spine_2
		{
			OFFSET	0	112	-10
			CHANNELS 3  Xrotation Yrotation Zrotation
			JOINT spine_3
			{
				OFFSET	0	206.5	19.3
				CHANNELS 3  Xrotation Yrotation Zrotation
				JOINT spine_4
				{
					OFFSET	0	110.4	14.6
					CHANNELS 3  Xrotation Yrotation Zrotation
					JOINT neck_1
					{
						OFFSET	0	71.8	-50.3
						CHANNELS 3  Xrotation Yrotation Zrotation
						JOINT neck_2
						{
							OFFSET	0	86.2	-25.8
							CHANNELS 3  Xrotation Yrotation Zrotation
							JOINT head_ee
							{
								OFFSET	0	179.8	-8.7
								CHANNELS 3  Xrotation Yrotation Zrotation
								End Site
								{
									OFFSET	1	0	0
								}
							}
						}
					}
					JOINT left_clavicle
					{
						OFFSET	-43.2	22.4	-70.8
						CHANNELS 3  Xrotation Yrotation Zrotation
						JOINT left_shoulder
						{
							OFFSET	-93.9	-5.79999	48.7
							CHANNELS 3  Xrotation Yrotation Zrotation
							JOINT left_elbow
							{
								OFFSET	-291.4	-30.8	15.2
								CHANNELS 3  Xrotation Yrotation Zrotation
								JOINT left_lowarm_twist
								{
									OFFSET	-110.7	-3.89999	13.6
									CHANNELS 3  Xrotation Yrotation Zrotation
									JOINT left_hand
									{
										OFFSET	-110.7	-3.89999	13.6
										CHANNELS 3  Xrotation Yrotation Zrotation
										JOINT left_ee
										{
											OFFSET	-80.8	-5.10001	12.1
											CHANNELS 3  Xrotation Yrotation Zrotation
											End Site
											{
												OFFSET	1	0	0
											}
										}
									}
								}
							}
						}
					}
					JOINT right_clavicle
					{
						OFFSET	43.2	22.4	-70.8
						CHANNELS 3  Xrotation Yrotation Zrotation
						JOINT right_shoulder
						{
							OFFSET	93.9	-5.79999	48.7
							CHANNELS 3  Xrotation Yrotation Zrotation
							JOINT right_elbow
							{
								OFFSET	291.4	-30.8	15.2
								CHANNELS 3  Xrotation Yrotation Zrotation
								JOINT right_lowarm_twist
								{
									OFFSET	110.7	-3.89999	13.6
									CHANNELS 3  Xrotation Yrotation Zrotation
									JOINT right_hand
									{
										OFFSET	110.7	-3.89999	13.6
										CHANNELS 3  Xrotation Yrotation Zrotation
										JOINT right_ee
										{
											OFFSET	80.8	-5.10001	12.1
											CHANNELS 3  Xrotation Yrotation Zrotation
											End Site
											{
												OFFSET	1	0	0
											}
										}
									}
								}
							}
						}
					}
				}
			}
		}
	}
	JOINT left_hip
	{
		OFFSET	-82.8	-127.5	0.300001
		CHANNELS 3  Xrotation Yrotation Zrotation
		JOINT left_knee
		{
			OFFSET	-28.2	-396.7	2.2
			CHANNELS 3  Xrotation Yrotation Zrotation
			JOINT left_ankle
			{
				OFFSET	-11.7	-411.3	35.4
				CHANNELS 3  Xrotation Yrotation Zrotation
				JOINT left_toes
				{
					OFFSET	0	-60	-88.6
					CHANNELS 3  Xrotation Yrotation Zrotation
					JOINT left_foot_ee
					{
						OFFSET	-22.5	-16.5	-42.2
						CHANNELS 3  Xrotation Yrotation Zrotation
						End Site
						{
							OFFSET	1	0	0
						}
					}
				}
			}
		}
	}
	JOINT right_hip
	{
		OFFSET	82.8	-127.5	0.300001
		CHANNELS 3  Xrotation Yrotation Zrotation
		JOINT right_knee
		{
			OFFSET	28.2	-396.7	2.2
			CHANNELS 3  Xrotation Yrotation Zrotation
			JOINT right_ankle
			{
				OFFSET	11.7	-411.3	35.4
				CHANNELS 3  Xrotation Yrotation Zrotation
				JOINT right_toes
				{
					OFFSET	0	-60	-88.6
					CHANNELS 3  Xrotation Yrotation Zrotation
					JOINT right_foot_ee
					{
						OFFSET	22.5	-16.5	-42.2
						CHANNELS 3  Xrotation Yrotation Zrotation
						End Site
						{
							OFFSET	1	0	0
						}
					}
				}
			}
		}
	}
}
MOTION
Frames: 8
Frame Time: 0.02
3275.61 689.434 -1454.41 -17.2812 66.6909 10.2319 1.79776 0.804719 4.1305 1.80709 0.540488 4.17324 1.84694 -0.21325 4.20263 1.82258 0.452559 4.18367 -4.15238 15.2564 -3.60615 -3.75713 30.6779 -1.30859 -0.0 0.0 -0.0 -2.43857 23.2525 -0.662126 -36.5949 -11.5159 73.7934 0.94184 -25.0115 0.208904 -39.5706 -2.90562 4.02965 -2.36486 13.2918 -9.41614 -0.0 0.0 -0.0 13.7596 25.8085 -27.4643 14.8229 30.5481 -63.2719 2.37795 49.664 -1.1005 67.8556 2.52094 7.78279 1.65253 -12.3558 -15.7384 0.0 0.0 0.0 26.8912 -3.40339 -5.93758 3.48497 -0.159119 -0.510967 -3.66131 28.1907 0.5735 -34.8978 0.0 0.0 -0.0 0.0 -0.0 -6.24991 -12.7076 14.7179 -9.04172 -0.265355 -1.36082 30.018 19.8078 4.32293 25.7343 -0.0 -0.0 0.0 0.0 0.0 
3259.44 694.44 -1446.12 -17.2917 66.4084 10.2909 1.60562 0.925929 4.23779 1.61537 0.654646 4.28799 1.66554 -0.134876 4.33549 1.63974 0.550879 4.30252 -3.81791 15.5159 -3.08055 -3.40156 30.7209 -0.816033 -0.0 0.0 -0.0 -1.88777 23.0292 0.0598068 -34.8556 -11.3704 73.2454 0.994493 -26.2263 0.231672 -39.884 -2.93884 4.05232 -2.39535 13.1833 -9.66544 -0.0 0.0 -0.0 13.7788 26.0545 -27.4792 14.0403 29.4994 -63.0329 2.33323 49.1268 -1.06655 67.7649 2.51181 7.77559 1.61941 -12.6235 -15.6126 0.0 0.0 0.0 26.3226 -3.23338 -5.02978 3.76654 -0.173331 -0.551822 -3.43081 28.7572 0.539099 -34.6458 0.0 0.0 -0.0 0.0 -0.0 -6.00383 -11.3568 15.134 -10.4665 -0.287449 -1.57832 29.6202 17.1634 4.18803 26.1014 -0.0 -0.0 0.0 0.0 0.0 
3241.3 698.167 -1440.85 -16.159 65.9743 9.08681 1.23612 1.09783 4.41693 1.2466 0.814835 4.47767 1.31288 -0.0394142 4.55089 1.28463 0.679069 4.50022 -3.59063 15.7288 -2.62864 -3.16242 30.7413 -0.376162 -0.0 0.0 -0.0 -1.63521 22.4088 0.311294 -32.7191 -11.2036 72.576 0.976036 -25.8033 0.223577 -40.1733 -2.96961 4.07308 -2.3876 13.1942 -9.61052 -0.0 0.0 -0.0 13.7329 26.7398 -27.2864 13.5618 28.2406 -62.9824 2.37328 49.6085 -1.09695 67.7077 2.50605 7.77104 1.58029 -12.8585 -15.4366 0.0 0.0 0.0 25.1324 -3.05331 -4.25269 3.63452 -0.166642 -0.532675 -2.18247 28.4871 0.341549 -34.2985 0.0 0.0 -0.0 0.0 -0.0 -6.09546 -9.4409 16.1685 -12.6003 -0.310406 -1.9049 30.0707 13.3737 4.13123 26.6007 -0.0 -0.0 0.0 0.0 0.0 
3219.44 705.392 -1436.66 -15.3888 65.8959 8.10705 1.16617 1.18791 4.43334 1.17665 0.90369 4.49976 1.25058 0.0390029 4.58926 1.22201 0.762549 4.52576 -3.41863 16.1323 -1.77438 -2.99325 30.8088 0.528246 -0.0 0.0 -0.0 -1.38563 20.5958 0.388019 -28.5898 -11.2635 70.2076 1.08366 -28.2268 0.272475 -40.8509 -3.04211 4.1211 -2.41227 12.6251 -10.0573 -0.0 0.0 -0.0 14.0606 27.5875 -27.9383 11.7199 26.0073 -62.4829 2.2758 48.4195 -1.02336 67.4625 2.4814 7.75148 1.43438 -13.1958 -14.5991 0.0 0.0 0.0 23.3028 -2.94704 -2.94667 3.95472 -0.18294 -0.579088 -1.84726 29.0455 0.289944 -33.5872 0.0 0.0 -0.0 0.0 -0.0 -5.82839 -6.48517 17.3751 -15.6094 -0.322084 -2.36638 30.0772 7.71577 4.01218 27.8914 -0.0 -0.0 0.0 0.0 0.0 
3199.28 709.621 -1431.98 -13.8447 65.513 6.49208 1.12452 1.39162 4.44468 1.13483 1.10627 4.52401 1.22557 0.232013 4.65126 1.19668 0.962913 4.55661 -4.2862 16.4076 0.0381908 -4.00539 30.0833 2.68763 -0.0 0.0 -0.0 -1.28673 20.3373 0.493425 -27.793 -11.5814 69.7315 1.06508 -27.8158 0.263743 -41.6497 -3.12829 4.17661 -2.49115 13.5621 -10.0823 -0.0 0.0 -0.0 14.0926 27.6993 -27.9976 9.89317 23.6278 -62.8506 2.14508 46.7327 -0.926851 68.1772 2.55346 7.8082 1.66199 -13.5911 -16.2229 0.0 0.0 0.0 21.1974 -2.58359 -1.66609 3.72255 -0.171097 -0.545444 1.80911 27.7758 -0.279494 -31.5264 0.0 0.0 -0.0 0.0 -0.0 -6.38582 -2.48458 17.8284 -19.2927 -0.303384 -2.93112 26.4395 1.17795 3.5273 26.5281 -0.0 -0.0 0.0 0.0 0.0 
3182.19 717.093 -1430.02 -14.3365 65.8704 6.27409 1.17356 1.28724 4.6265 1.18492 0.990571 4.69881 1.26941 0.0886403 4.80104 1.23825 0.844906 4.72712 -5.59572 16.6743 0.316202 -5.44826 30.5882 3.3709 -0.0 0.0 -0.0 -1.25178 19.4661 0.416447 -25.1396 -11.7191 68.0524 1.07118 -27.951 0.266596 -42.5028 -3.22118 4.23456 -2.48588 13.9446 -9.85218 -0.0 0.0 -0.0 13.9919 27.6497 -27.7696 8.48622 22.5974 -63.5774 2.07808 45.8251 -0.878431 66.8616 2.42138 7.70311 1.46612 -13.5537 -14.9298 0.0 0.0 0.0 19.4128 -2.3787 0.0379177 5.70446 -0.276577 -0.831087 3.3961 28.8338 -0.526232 -31.4293 0.0 0.0 -0.0 0.0 -0.0 -7.23303 3.13906 18.095 -23.0203 -0.247557 -3.50026 27.9168 -1.55758 3.67414 28.8261 -0.0 -0.0 0.0 0.0 0.0 
3155.68 725.951 -1421.46 -10.9368 65.8129 1.97922 0.95695 1.68778 4.7378 0.968372 1.38325 4.83529 1.08986 0.434376 5.01005 1.05692 1.21923 4.87913 -7.46177 16.7715 1.73266 -7.51536 30.0618 5.31763 -0.0 0.0 -0.0 -0.762713 18.2695 0.981986 -22.4251 -12.3964 66.3541 1.01041 -26.5886 0.238751 -42.4717 -3.21778 4.23247 -2.16163 12.262 -8.63531 -0.0 0.0 -0.0 13.8603 26.9892 -27.5512 5.37283 20.2164 -63.7361 2.05523 45.5084 -0.862082 65.8794 2.32438 7.6227 1.68688 -13.2715 -16.2781 0.0 0.0 0.0 16.4289 -2.32822 2.20771 5.39282 -0.259336 -0.786411 6.61457 26.6354 -1.00267 -30.4985 0.0 0.0 -0.0 0.0 -0.0 -7.90663 10.8305 20.2256 -30.9628 -0.00598805 -4.69428 32.4448 -7.31916 4.14506 32.7499 -0.0 -0.0 0.0 0.0 0.0 
3116.18 730.688 -1415.93 -6.07157 67.1458 -3.07589 0.849899 1.68007 4.73975 0.861343 1.37543 4.83675 0.982605 0.416983 5.01079 0.949595 1.20217 4.88259 -10.2571 17.0569 3.53637 -10.574 29.8462 7.91235 -0.0 0.0 -0.0 -0.497259 15.5281 1.03602 -17.365 -13.1991 63.9562 1.01803 -26.7613 0.242171 -42.2704 -3.19579 4.21891 -1.9497 13.2875 -6.78598 -0.0 0.0 -0.0 13.1335 21.9477 -26.4024 1.56416 20.2581 -65.583 1.88261 42.998 -0.741599 64.1556 2.15754 7.47763 1.83003 -13.5232 -17.3063 0.0 0.0 0.0 10.5881 -2.81673 5.41261 7.6571 -0.39013 -1.10886 12.2414 24.3022 -1.8007 -28.6305 0.0 0.0 -0.0 0.0 -0.0 -9.0996 19.5065 21.2785 -42.0416 0.601739 -6.2817 34.4401 -11.8716 4.3694 35.0521 -0.0 -0.0 0.0 0.0 0.0 
